# xmcd
#
# Track frame offsets: 
#        150
#        24409
#        52637
#        78122
#        102267
#        128109
#        151178
#        176387
#        204790
#        225180
#
# Disc length: 3337 seconds
#
# Revision: 0
# Processed by: cddbd v1.5.2PL0 Copyright (c) Steve Scherf et al.
# Submitted via: ExactAudioCopy v1.0b3
#
DISCID=5b0d070a
DTITLE=Manh Quynh, Kha Tu - Thuyen Hoa
DYEAR=1997
DGENRE=
TTITLE0=Thuyen hoa
TTITLE1=Manh Quynh - Xin yeu toi bang tinh nguoi
TTITLE2=Sao doi ngoi
TTITLE3=Manh Quynh - Tien em theo chong
TTITLE4=Kha Tu - Tram nho ngan thuong
TTITLE5=Manh Quynh - Ngan thu vinh biet
TTITLE6=Roi ngay mai xa nhau
TTITLE7=Manh Quynh - Cho nguoi tinh lo
TTITLE8=Kha Tu - Ga chieu
TTITLE9=Manh Quynh - Nguoi tinh
EXTD=
EXTT0=
EXTT1=
EXTT2=
EXTT3=
EXTT4=
EXTT5=
EXTT6=
EXTT7=
EXTT8=
EXTT9=
PLAYORDER=
